<?xml version="1.0" encoding="UTF-8"?>
<!DOCTYPE svg PUBLIC "-//W3C//DTD SVG 1.1//EN" "http://www.w3.org/Graphics/SVG/1.1/DTD/svg11.dtd">
<!-- Creator: CorelDRAW SE (OEM-Version) -->
<svg xmlns="http://www.w3.org/2000/svg" xml:space="preserve" width="297mm" height="210mm" version="1.1" style="shape-rendering:geometricPrecision; text-rendering:geometricPrecision; image-rendering:optimizeQuality; fill-rule:evenodd; clip-rule:evenodd"
viewBox="0 0 29700 21000"
 xmlns:xlink="http://www.w3.org/1999/xlink">
 <defs>
  <style type="text/css">
   <![CDATA[
    .fil0 {fill:none}
    .fil2 {fill:black;fill-rule:nonzero}
    .fil1 {fill:url(#id0)}
   ]]>
  </style>
  <linearGradient id="id0" gradientUnits="userSpaceOnUse" x1="4535.44" y1="7580.1" x2="25164.73" y2="7580.1">
   <stop offset="0" style="stop-opacity:1; stop-color:#8B3589"/>
   <stop offset="0.419608" style="stop-opacity:1; stop-color:#693387"/>
   <stop offset="1" style="stop-opacity:1; stop-color:#463185"/>
  </linearGradient>
 </defs>
 <g id="Ebene_x0020_1">
  <metadata id="CorelCorpID_0Corel-Layer"/>
  <rect class="fil0" width="29700" height="21000"/>
  <g id="_942440928">
   <path class="fil1" d="M4754.53 7121.34c-132.84,97.44 -219.09,254.7 -219.09,432.13 0,166.98 76.41,316.09 196.12,414.25l0 0.09 6254.43 5130.17c97.78,129.34 252.93,212.87 427.55,212.87l0 0.09 3261.67 13.98c48.95,13 100.19,19.95 153.03,19.95l4488.37 0 4466.92 19.21 -2.12 -19.21 572.3 0c330.11,0 600.14,-270.03 600.14,-600.14l0 0c0,-330.12 -270.03,-600.1 -600.14,-600.1l-706.21 0 -8819.26 0 -902.41 0c-247.15,0 -449.4,-202.21 -449.4,-449.44l0 -0.13c0,-247.23 202.17,-449.39 449.4,-449.39l399.75 0 9221.68 0 465.58 0c285.61,0 519.2,-233.64 519.2,-519.25l0 -0.08c0,-285.61 -233.59,-519.2 -519.2,-519.2l-581.45 0 -7599.07 0c-494.42,0 -898.96,-404.5 -898.96,-898.96l0 -0.09c0,-494.46 404.5,-898.96 898.96,-898.96l7398.55 0 1127.89 0c443.31,0 805.97,-362.67 805.97,-805.97l0 0c0,-443.27 -362.66,-805.93 -805.97,-805.93l-1307.73 0 -7806.03 0 -172.16 0c-247.19,0 -449.44,-202.21 -449.44,-449.44l0 -0.13c0,-247.23 202.17,-449.39 449.44,-449.39l7877.95 0 1049.06 0c204.62,0 371.95,-167.33 371.95,-371.95l0 -0.09c0,-204.62 -167.33,-371.95 -371.95,-371.95l-1132.08 0 -8678.39 0c-494.38,0 -898.96,-404.49 -898.96,-898.96l0 -0.08c0,-494.47 404.5,-898.96 898.96,-898.96l8477.83 0 14.33 0c421.81,0 766.86,-345.1 766.86,-766.87l0 -0.13c0,-421.8 -345.05,-766.9 -766.86,-766.9l-3290.42 0 -7968.77 -26.12 -1.86 0 -6.95 -0.08c-96.53,0 -187.05,25.42 -265.23,70.15l-0.13 0.08 -0.22 0.22c-52.49,30 -99.46,68.81 -138.92,114.14l-6254.51 5140.57zm19013.2 1859.27c199.74,0 361.71,161.97 361.71,361.71 0,199.75 -161.97,361.72 -361.71,361.72 -199.75,0 -361.72,-161.97 -361.72,-361.72 0,-199.74 161.97,-361.71 361.72,-361.71zm-1180.3 -209.37c315.35,0 571.09,255.73 571.09,571.08 0,315.36 -255.74,571.09 -571.09,571.09 -315.35,0 -571.09,-255.73 -571.09,-571.09 0,-315.35 255.74,-571.08 571.09,-571.08zm-6110.72 -4816.29c199.75,0 361.72,161.97 361.72,361.72 0,199.74 -161.97,361.71 -361.72,361.71 -199.74,0 -361.72,-161.97 -361.72,-361.71 0,-199.75 161.98,-361.72 361.72,-361.72zm-1531.52 -381.92c373.2,0 675.77,302.57 675.77,675.77 0,373.2 -302.57,675.78 -675.77,675.78 -373.2,0 -675.78,-302.58 -675.78,-675.78 0,-373.2 302.58,-675.77 675.78,-675.77zm-3531.65 9737.91l0 -0.09 0 0.09z"/>
   <path class="fil2" d="M6835.47 18612.49c15.54,0 28.7,5.4 39.58,16.27l93.12 100.11c-68.3,72.96 -142.76,138.15 -223.49,196.34 -80.73,58.23 -168.4,107.88 -263.85,149.02 -95.45,41.14 -200.22,72.96 -314.32,95.45 -114.05,22.49 -239.76,34.14 -376.35,34.14 -228.15,0 -436.92,-40.36 -627.04,-120.31 -190.16,-79.91 -353.9,-193.23 -489.71,-339.87 -135.81,-146.69 -242.09,-324.42 -318.94,-532.37 -76.84,-207.99 -114.87,-439.25 -114.87,-694.55 0,-249.91 39.59,-478.06 118.76,-684.5 79.13,-206.43 189.34,-384.12 331.37,-532.36 142.03,-148.2 312.72,-263.08 510.61,-344.54 197.89,-81.5 415.98,-122.64 655.01,-122.64 119.49,0 228.92,8.55 328.26,26.38 99.33,17.87 192.45,43.47 278.57,76.84 86.17,33.37 166.85,75.28 242.91,124.93 76.07,49.69 150.58,107.1 223.49,172.29l-72.13 104.77c-12.44,18.61 -31.82,27.93 -58.24,27.93 -13.94,0 -31.82,-8.55 -53.53,-24.82 -21.71,-16.32 -48.91,-36.48 -82.28,-60.52 -33.37,-24.05 -73.69,-50.47 -121.05,-79.18 -47.31,-28.7 -103.99,-55.08 -169.18,-79.13 -65.19,-24.09 -140.47,-44.25 -225.82,-60.56 -85.34,-16.28 -182.39,-24.05 -291,-24.05 -200.22,0 -384.17,34.93 -551.8,104 -167.62,69.07 -311.94,167.62 -433.03,295.66 -121.05,128.04 -214.94,283.28 -282.46,465.63 -67.51,183.17 -101.66,387.23 -101.66,613.87 0,233.59 33.37,441.54 100.11,624.7 66.74,183.13 159.08,338.37 277.06,464.85 117.94,126.49 257.64,223.49 418.27,291.01 160.63,67.52 334.48,101.66 522.26,101.66 117.99,0 223.54,-7.77 315.87,-23.27 92.34,-15.54 176.91,-38.81 254.53,-69.84 77.62,-31.04 149.8,-69.08 216.54,-114.1 66.74,-44.98 132.7,-97.78 197.89,-158.3 7.73,-6.22 15.5,-11.66 22.49,-15.54 6.99,-3.85 14.76,-5.4 24.05,-5.4zm7072.75 -2784.9c35.31,0 79.56,0.34 90.05,0.43l0.56 0 0.43 0 0.43 0 0.3 0 0.26 0 0.22 0 0.09 0 0.04 0 0.04 0 0.09 0 0.17 0 0.26 0 0.3 0 0.35 0 0.43 0 0.52 0 0.51 0 0.61 0 0.6 0 0.69 0 0.74 0 0.78 0 0.82 0 0.86 0 0.91 0 0.9 0 0.95 0 0.99 0 1.04 0 1.04 0 1.03 0 1.13 0 1.07 0 1.13 0 1.12 0 1.16 0 1.13 0 1.16 0 1.17 0 1.16 0 1.17 0 1.16 0 1.17 0 1.12 0 1.17 0 1.12 0 1.12 0 1.13 0 1.07 0 1.04 0 1.04 0 1.03 0 1 0 0.95 0 0.9 0 0.91 0 0.86 0 0.82 0 0.78 0 0.73 0 0.69 0 0.61 0 0.6 0 0.56 0 0.48 0 0.43 0 0.35 0 0.3 0 0.26 0 0.17 0 0.09 0 0.04 0 1946.21 2590.77c-4.67,-40.32 -7.77,-79.91 -9.33,-117.94 -1.55,-38.03 -2.33,-74.51 -2.33,-110.21l0 -2363.05 395.78 0 0 3338.55 -228.15 0c-35.7,0 -65.23,-6.22 -89.23,-18.61 -24.05,-12.39 -48.61,-33.02 -71.41,-62.9l-1920.78 -2512.5c0,0 0.09,216.97 0.09,216.97l0 2377.04 -20.85 0 0 0.43 -228.15 0c-31.21,0 -73.39,-0.35 -83.45,-0.43l-0.47 0 -0.48 0 -0.39 0 -0.3 0 -0.26 0 -0.17 0 -0.09 0 -0.04 0 -0.04 0 -0.13 0 -0.22 0 -0.3 0 -0.39 0 -0.43 0 -0.52 0 -0.6 0 -0.65 0 -0.73 0 -0.78 0 -0.86 0 -0.91 0 -0.95 0 -0.99 0 -1.04 0 -1.12 0 -1.12 0 -1.17 0 -1.21 0 -1.25 0 -1.3 0 -1.29 0 -1.34 0 -1.34 0 -1.38 0 -1.38 0 -1.42 0 -1.43 0 -1.42 0 -1.43 0 -1.42 0 -1.43 0 -1.42 0 -1.43 0 -1.42 0 -1.43 0 -1.38 0 -1.38 0 -1.34 0 -1.34 0 -1.29 0 -1.3 0 -1.25 0 -1.21 0 -1.16 0 -1.12 0 -1.13 0 -1.03 0 -1 0 -0.95 0 -0.9 0 -0.87 0 -0.77 0 -0.74 0 -0.64 0 -0.61 0 -0.52 0 -0.43 0 -0.39 0 -0.3 0 -0.21 0 -0.13 0 -0.05 0 -1943.87 -2593.1c3.1,38.8 5.44,76.84 6.99,114.09 1.55,37.21 2.33,71.36 2.33,102.4l0 2377.04 -395.78 0 0 -3338.55 232.82 0c40.36,0 70.66,4.75 90,14.76 19.34,10.06 41.79,30.65 65.97,62.08l1920.82 2499.29c0,0 -0.13,-156.53 -0.13,-213.08l0 -2363.05 20.85 0 0 -0.43 232.82 0zm5347.7 41.91l0 200.22 -1734.47 0 0 1331.69 1443.46 0 0 195.56 -1443.46 0 0 1368.95 1734.47 0 0 200.22 -1976.6 0 0 -3296.64 1976.6 0zm3170.88 2742.56c15.54,0 28.7,5.39 39.58,16.27l93.12 100.11c-68.29,72.96 -142.76,138.14 -223.49,196.34 -80.73,58.23 -168.4,107.88 -263.85,149.02 -95.45,41.14 -200.22,72.95 -314.32,95.45 -114.05,22.49 -239.76,34.14 -376.35,34.14 -228.15,0 -436.92,-40.36 -627.03,-120.31 -190.17,-79.91 -353.91,-193.23 -489.72,-339.87 -135.81,-146.69 -242.09,-324.42 -318.93,-532.37 -76.85,-207.99 -114.88,-439.25 -114.88,-694.55 0,-249.91 39.59,-478.06 118.76,-684.5 79.13,-206.43 189.34,-384.12 331.37,-532.36 142.03,-148.2 312.72,-263.08 510.61,-344.54 197.89,-81.5 415.98,-122.64 655.01,-122.64 119.49,0 228.93,8.54 328.26,26.37 99.33,17.88 192.45,43.48 278.57,76.85 86.17,33.37 166.85,75.28 242.92,124.93 76.06,49.69 150.57,107.1 223.48,172.29l-72.13 104.77c-12.44,18.61 -31.82,27.93 -58.24,27.93 -13.94,0 -31.81,-8.55 -53.53,-24.82 -21.71,-16.32 -48.91,-36.48 -82.28,-60.53 -33.37,-24.04 -73.69,-50.46 -121.05,-79.17 -47.31,-28.71 -103.99,-55.08 -169.18,-79.13 -65.18,-24.09 -140.47,-44.25 -225.82,-60.57 -85.34,-16.27 -182.39,-24.04 -291,-24.04 -200.22,0 -384.17,34.92 -551.79,103.99 -167.63,69.08 -311.95,167.63 -433.04,295.67 -121.04,128.04 -214.94,283.28 -282.45,465.63 -67.52,183.17 -101.67,387.23 -101.67,613.87 0,233.59 33.37,441.53 100.11,624.7 66.74,183.13 159.08,338.36 277.06,464.85 117.94,126.49 257.64,223.49 418.27,291.01 160.64,67.51 334.48,101.66 522.27,101.66 117.98,0 223.53,-7.77 315.87,-23.27 92.34,-15.54 176.9,-38.81 254.52,-69.85 77.62,-31.03 149.8,-69.07 216.54,-114.09 66.74,-44.99 132.7,-97.78 197.89,-158.3 7.73,-6.22 15.5,-11.66 22.49,-15.55 6.99,-3.84 14.77,-5.39 24.05,-5.39zm3033.6 -2742.56l0 204.88 -1157.11 0 0 3091.76 -237.48 0 0 -3091.76 -1164.06 0 0 -204.88 2558.65 0zm-14806.77 1648.77c0,254.53 -38.03,485.79 -114.1,693.78 -76.02,207.17 -183.12,384.12 -321.26,531.59 -137.37,146.64 -302.67,259.96 -495.12,339.87 -192.44,79.95 -405.87,120.31 -639.46,120.31 -231.26,0 -443.14,-40.36 -635.59,-120.31 -192.45,-79.91 -357.74,-193.23 -495.11,-339.87 -138.14,-147.47 -245.98,-324.42 -322.82,-531.59 -76.84,-207.99 -114.87,-439.25 -114.87,-693.78 0,-253.01 38.03,-483.49 114.87,-691.48 76.84,-207.17 184.68,-384.13 322.82,-531.59 137.37,-146.65 302.66,-260.75 495.11,-341.43 192.45,-80.73 404.33,-121.09 635.59,-121.09 233.59,0 447.02,40.36 639.46,120.31 192.45,79.91 357.75,194.01 495.12,341.43 138.14,147.47 245.24,325.2 321.26,532.37 76.07,207.99 114.1,438.47 114.1,691.48zm-246.8 -1.55c0,-229.71 -31.82,-436.14 -95.45,-619.31 -63.63,-183.12 -152.86,-339.14 -268.51,-466.4 -114.83,-127.27 -254.53,-224.27 -416.72,-291.78 -162.96,-67.52 -343.02,-101.67 -541.69,-101.67 -195.55,0 -374.06,34.15 -535.47,101.67 -162.19,67.51 -301.88,164.51 -418.27,291.78 -117.2,127.26 -207.99,283.28 -272.4,466.4 -64.41,183.17 -96.22,389.6 -96.22,619.31 0,232.04 31.81,438.43 96.22,621.6 64.41,182.34 155.2,336.8 272.4,464.84 116.39,127.27 256.08,224.27 418.27,291.01 161.41,66.74 339.92,100.11 535.47,100.11 198.67,0 378.73,-33.37 541.69,-100.11 162.19,-66.74 301.89,-163.74 416.72,-291.01 115.65,-128.04 204.88,-282.5 268.51,-464.84 63.63,-183.17 95.45,-389.56 95.45,-621.6z"/>
  </g>
 </g>
</svg>
