<?xml version="1.0" encoding="UTF-8"?>
<!DOCTYPE svg PUBLIC "-//W3C//DTD SVG 1.1//EN" "http://www.w3.org/Graphics/SVG/1.1/DTD/svg11.dtd">
<!-- Creator: CorelDRAW SE (OEM-Version) -->
<svg xmlns="http://www.w3.org/2000/svg" xml:space="preserve" width="297mm" height="210mm" version="1.1" style="shape-rendering:geometricPrecision; text-rendering:geometricPrecision; image-rendering:optimizeQuality; fill-rule:evenodd; clip-rule:evenodd"
viewBox="0 0 29700 21000"
 xmlns:xlink="http://www.w3.org/1999/xlink">
 <defs>
  <style type="text/css">
   <![CDATA[
    .fil0 {fill:none}
    .fil2 {fill:black;fill-rule:nonzero}
    .fil1 {fill:url(#id0)}
   ]]>
  </style>
  <linearGradient id="id0" gradientUnits="userSpaceOnUse" x1="4535.41" y1="7580.11" x2="25164.74" y2="7580.11">
   <stop offset="0" style="stop-opacity:1; stop-color:#0089CE"/>
   <stop offset="0.419608" style="stop-opacity:1; stop-color:#235DAA"/>
   <stop offset="1" style="stop-opacity:1; stop-color:#463185"/>
  </linearGradient>
 </defs>
 <g id="Ebene_x0020_1">
  <metadata id="CorelCorpID_0Corel-Layer"/>
  <rect class="fil0" width="29700" height="21000"/>
  <g id="_1143016520">
   <path class="fil1" d="M4754.5 7121.34c-132.83,97.44 -219.09,254.7 -219.09,432.13 0,166.98 76.41,316.09 196.12,414.26l0 0.08 6254.45 5130.18c97.77,129.34 252.93,212.87 427.55,212.87l0 0.09 3261.67 13.98c48.95,13 100.19,19.95 153.03,19.95l4488.38 0 4466.92 19.21 -2.11 -19.21 572.3 0c330.11,0 600.14,-270.03 600.14,-600.15l0 0c0,-330.11 -270.03,-600.1 -600.14,-600.1l-706.21 0 -8819.28 0 -902.41 0c-247.15,0 -449.4,-202.2 -449.4,-449.43l0 -0.13c0,-247.23 202.17,-449.4 449.4,-449.4l399.75 0 9221.7 0 465.58 0c285.61,0 519.2,-233.63 519.2,-519.24l0 -0.09c0,-285.61 -233.59,-519.2 -519.2,-519.2l-581.45 0 -7599.09 0c-494.42,0 -898.96,-404.49 -898.96,-898.96l0 -0.08c0,-494.47 404.5,-898.97 898.96,-898.97l7398.57 0 1127.89 0c443.3,0 805.97,-362.66 805.97,-805.97l0 0c0,-443.26 -362.67,-805.93 -805.97,-805.93l-1307.74 0 -7806.04 0 -172.16 0c-247.19,0 -449.44,-202.21 -449.44,-449.44l0 -0.13c0,-247.23 202.17,-449.39 449.44,-449.39l7877.96 0 1049.07 0c204.62,0 371.94,-167.33 371.94,-371.95l0 -0.09c0,-204.62 -167.32,-371.95 -371.94,-371.95l-1132.08 0 -8678.41 0c-494.38,0 -898.96,-404.5 -898.96,-898.96l0 -0.09c0,-494.46 404.5,-898.96 898.96,-898.96l8477.84 0 14.33 0c421.81,0 766.87,-345.09 766.87,-766.86l0 -0.13c0,-421.81 -345.06,-766.91 -766.87,-766.91l-3290.42 0 -7968.79 -26.11 -1.85 0 -6.95 -0.09c-96.53,0 -187.06,25.43 -265.24,70.15l-0.13 0.09 -0.21 0.21c-52.5,30.01 -99.47,68.81 -138.92,114.14l-6254.53 5140.58zm19013.23 1859.27c199.75,0 361.72,161.97 361.72,361.72 0,199.74 -161.97,361.72 -361.72,361.72 -199.74,0 -361.71,-161.98 -361.71,-361.72 0,-199.75 161.97,-361.72 361.71,-361.72zm-1180.29 -209.37c315.35,0 571.08,255.74 571.08,571.09 0,315.35 -255.73,571.09 -571.08,571.09 -315.36,0 -571.09,-255.74 -571.09,-571.09 0,-315.35 255.73,-571.09 571.09,-571.09zm-6110.73 -4816.29c199.74,0 361.71,161.97 361.71,361.71 0,199.75 -161.97,361.72 -361.71,361.72 -199.75,0 -361.72,-161.97 -361.72,-361.72 0,-199.74 161.97,-361.71 361.72,-361.71zm-1531.53 -381.92c373.2,0 675.78,302.57 675.78,675.77 0,373.2 -302.58,675.78 -675.78,675.78 -373.2,0 -675.78,-302.58 -675.78,-675.78 0,-373.2 302.58,-675.77 675.78,-675.77zm-3531.65 9737.92l0 -0.09 0 0.09z"/>
   <path class="fil2" d="M6835.44 18612.51c15.54,0 28.71,5.39 39.59,16.27l93.12 100.11c-68.3,72.96 -142.77,138.14 -223.49,196.34 -80.73,58.23 -168.41,107.88 -263.85,149.02 -95.45,41.14 -200.22,72.95 -314.32,95.45 -114.06,22.49 -239.77,34.14 -376.35,34.14 -228.15,0 -436.92,-40.36 -627.04,-120.31 -190.16,-79.91 -353.9,-193.23 -489.72,-339.87 -135.81,-146.69 -242.09,-324.42 -318.93,-532.37 -76.84,-207.99 -114.88,-439.25 -114.88,-694.56 0,-249.9 39.59,-478.05 118.76,-684.49 79.13,-206.44 189.34,-384.12 331.37,-532.37 142.03,-148.2 312.72,-263.07 510.61,-344.53 197.89,-81.51 415.98,-122.65 655.01,-122.65 119.5,0 228.93,8.55 328.26,26.38 99.34,17.87 192.45,43.47 278.58,76.84 86.16,33.37 166.85,75.29 242.91,124.93 76.07,49.69 150.58,107.11 223.49,172.29l-72.14 104.78c-12.43,18.6 -31.81,27.93 -58.23,27.93 -13.95,0 -31.82,-8.55 -53.53,-24.83 -21.72,-16.31 -48.91,-36.47 -82.28,-60.52 -33.37,-24.05 -73.69,-50.47 -121.05,-79.17 -47.31,-28.71 -104,-55.09 -169.18,-79.13 -65.19,-24.09 -140.48,-44.25 -225.82,-60.57 -85.35,-16.27 -182.39,-24.05 -291.01,-24.05 -200.22,0 -384.16,34.93 -551.79,104 -167.63,69.07 -311.94,167.63 -433.03,295.67 -121.05,128.04 -214.94,283.28 -282.46,465.62 -67.52,183.17 -101.67,387.23 -101.67,613.87 0,233.6 33.37,441.54 100.11,624.71 66.74,183.13 159.08,338.36 277.07,464.85 117.94,126.49 257.63,223.49 418.27,291.01 160.63,67.51 334.47,101.66 522.26,101.66 117.98,0 223.53,-7.77 315.87,-23.27 92.34,-15.54 176.91,-38.81 254.53,-69.85 77.62,-31.04 149.8,-69.07 216.54,-114.09 66.74,-44.99 132.7,-97.78 197.89,-158.31 7.72,-6.21 15.49,-11.65 22.49,-15.54 6.99,-3.84 14.76,-5.39 24.04,-5.39zm7072.77 -2784.91c35.31,0 79.56,0.34 90.05,0.43l0.56 0 0.43 0 0.43 0 0.3 0 0.26 0 0.22 0 0.09 0 0.04 0 0.04 0 0.09 0 0.17 0 0.26 0 0.3 0 0.35 0 0.43 0 0.52 0 0.51 0 0.61 0 0.6 0 0.69 0 0.74 0 0.78 0 0.82 0 0.86 0 0.91 0 0.9 0 0.95 0 0.99 0 1.04 0 1.04 0 1.03 0 1.13 0 1.07 0 1.13 0 1.12 0 1.16 0 1.13 0 1.16 0 1.17 0 1.16 0 1.17 0 1.17 0 1.16 0 1.12 0 1.17 0 1.12 0 1.12 0 1.13 0 1.08 0 1.03 0 1.04 0 1.03 0 1 0 0.95 0 0.9 0 0.91 0 0.86 0 0.82 0 0.78 0 0.73 0 0.69 0 0.61 0 0.6 0 0.56 0 0.48 0 0.43 0 0.35 0 0.3 0 0.26 0 0.17 0 0.09 0 0.04 0 1946.21 2590.77c-4.66,-40.32 -7.77,-79.9 -9.32,-117.93 -1.56,-38.04 -2.34,-74.51 -2.34,-110.22l0 -2363.05 395.78 0 0 3338.56 -228.15 0c-35.7,0 -65.23,-6.22 -89.23,-18.61 -24.04,-12.39 -48.61,-33.03 -71.4,-62.9l-1920.79 -2512.51c0,0 0.09,216.97 0.09,216.97l0 2377.05 -20.85 0 0 0.43 -228.15 0c-31.21,0 -73.39,-0.35 -83.45,-0.43l-0.47 0 -0.48 0 -0.39 0 -0.3 0 -0.26 0 -0.17 0 -0.09 0 -0.04 0 -0.04 0 -0.13 0 -0.22 0 -0.3 0 -0.39 0 -0.43 0 -0.52 0 -0.6 0 -0.65 0 -0.73 0 -0.78 0 -0.86 0 -0.91 0 -0.95 0 -0.99 0 -1.04 0 -1.12 0 -1.12 0 -1.17 0 -1.21 0 -1.25 0 -1.3 0 -1.29 0 -1.34 0 -1.34 0 -1.38 0 -1.38 0 -1.43 0 -1.42 0 -1.42 0 -1.43 0 -1.42 0 -1.43 0 -1.42 0 -1.43 0 -1.42 0 -1.43 0 -1.38 0 -1.38 0 -1.34 0 -1.34 0 -1.29 0 -1.3 0 -1.25 0 -1.21 0 -1.16 0 -1.12 0 -1.13 0 -1.03 0 -1 0 -0.95 0 -0.9 0 -0.87 0 -0.77 0 -0.74 0 -0.64 0 -0.61 0 -0.52 0 -0.43 0 -0.39 0 -0.3 0 -0.21 0 -0.13 0 -0.05 0 -1943.88 -2593.11c3.11,38.81 5.44,76.84 7,114.1 1.55,37.21 2.33,71.36 2.33,102.39l0 2377.05 -395.78 0 0 -3338.56 232.81 0c40.37,0 70.67,4.75 90.01,14.76 19.34,10.06 41.79,30.65 65.96,62.08l1920.83 2499.3c0,0 -0.13,-156.53 -0.13,-213.08l0 -2363.06 20.85 0 0 -0.43 232.82 0zm5347.7 41.92l0 200.22 -1734.46 0 0 1331.69 1443.46 0 0 195.56 -1443.46 0 0 1368.95 1734.46 0 0 200.22 -1976.6 0 0 -3296.64 1976.6 0zm3170.89 2742.55c15.54,0 28.71,5.4 39.59,16.28l93.11 100.11c-68.29,72.96 -142.76,138.14 -223.48,196.33 -80.73,58.24 -168.41,107.89 -263.86,149.03 -95.44,41.14 -200.22,72.95 -314.31,95.44 -114.06,22.49 -239.77,34.15 -376.35,34.15 -228.16,0 -436.92,-40.36 -627.04,-120.31 -190.16,-79.91 -353.91,-193.23 -489.72,-339.88 -135.81,-146.69 -242.09,-324.42 -318.93,-532.36 -76.84,-207.99 -114.88,-439.25 -114.88,-694.56 0,-249.91 39.59,-478.06 118.76,-684.49 79.13,-206.44 189.34,-384.12 331.37,-532.37 142.03,-148.2 312.72,-263.07 510.61,-344.53 197.89,-81.51 415.98,-122.65 655.01,-122.65 119.49,0 228.93,8.55 328.26,26.38 99.34,17.87 192.45,43.47 278.57,76.84 86.17,33.37 166.85,75.29 242.92,124.93 76.06,49.69 150.57,107.11 223.49,172.29l-72.14 104.77c-12.43,18.61 -31.81,27.93 -58.23,27.93 -13.95,0 -31.82,-8.54 -53.53,-24.82 -21.72,-16.32 -48.91,-36.48 -82.28,-60.52 -33.38,-24.05 -73.7,-50.47 -121.05,-79.17 -47.32,-28.71 -104,-55.09 -169.18,-79.13 -65.19,-24.09 -140.48,-44.25 -225.82,-60.57 -85.35,-16.28 -182.39,-24.05 -291.01,-24.05 -200.22,0 -384.16,34.93 -551.79,104 -167.63,69.07 -311.94,167.63 -433.03,295.67 -121.05,128.04 -214.95,283.27 -282.46,465.62 -67.52,183.17 -101.67,387.23 -101.67,613.87 0,233.59 33.37,441.54 100.11,624.71 66.74,183.12 159.08,338.36 277.06,464.85 117.94,126.49 257.64,223.49 418.27,291 160.64,67.52 334.48,101.67 522.27,101.67 117.98,0 223.53,-7.77 315.87,-23.27 92.34,-15.54 176.91,-38.81 254.53,-69.85 77.62,-31.04 149.8,-69.07 216.54,-114.1 66.74,-44.98 132.7,-97.77 197.88,-158.3 7.73,-6.21 15.5,-11.65 22.5,-15.54 6.99,-3.84 14.76,-5.4 24.04,-5.4zm3033.61 -2742.55l0 204.88 -1157.12 0 0 3091.76 -237.47 0 0 -3091.76 -1164.07 0 0 -204.88 2558.66 0zm-14806.8 1648.77c0,254.53 -38.03,485.79 -114.09,693.78 -76.03,207.17 -183.13,384.12 -321.27,531.59 -137.37,146.64 -302.66,259.96 -495.11,339.87 -192.45,79.95 -405.88,120.31 -639.47,120.31 -231.26,0 -443.14,-40.36 -635.59,-120.31 -192.45,-79.91 -357.74,-193.23 -495.11,-339.87 -138.14,-147.47 -245.98,-324.42 -322.82,-531.59 -76.84,-207.99 -114.87,-439.25 -114.87,-693.78 0,-253.02 38.03,-483.5 114.87,-691.49 76.84,-207.17 184.68,-384.12 322.82,-531.59 137.37,-146.65 302.66,-260.74 495.11,-341.43 192.45,-80.72 404.33,-121.09 635.59,-121.09 233.59,0 447.02,40.37 639.47,120.32 192.45,79.9 357.74,194 495.11,341.42 138.14,147.47 245.24,325.2 321.27,532.37 76.06,207.99 114.09,438.47 114.09,691.49zm-246.8 -1.56c0,-229.7 -31.81,-436.14 -95.44,-619.3 -63.64,-183.13 -152.87,-339.14 -268.52,-466.41 -114.83,-127.26 -254.53,-224.26 -416.71,-291.78 -162.97,-67.52 -343.03,-101.67 -541.7,-101.67 -195.55,0 -374.06,34.15 -535.47,101.67 -162.19,67.52 -301.88,164.52 -418.27,291.78 -117.2,127.27 -207.99,283.28 -272.4,466.41 -64.41,183.16 -96.22,389.6 -96.22,619.3 0,232.04 31.81,438.43 96.22,621.6 64.41,182.35 155.2,336.81 272.4,464.85 116.39,127.27 256.08,224.27 418.27,291.01 161.41,66.74 339.92,100.11 535.47,100.11 198.67,0 378.73,-33.37 541.7,-100.11 162.18,-66.74 301.88,-163.74 416.71,-291.01 115.65,-128.04 204.88,-282.5 268.52,-464.85 63.63,-183.17 95.44,-389.56 95.44,-621.6z"/>
  </g>
 </g>
</svg>
